<svg xmlns="http://www.w3.org/2000/svg" viewBox="0 0 64 64">
  <defs>
    <linearGradient id="g" x1="0" y1="0" x2="64" y2="64" gradientUnits="userSpaceOnUse">
      <stop offset="0" stop-color="#3b82f6"/>
      <stop offset="1" stop-color="#6366f1"/>
    </linearGradient>
  </defs>
  <rect width="64" height="64" rx="14" fill="url(#g)"/>
  <path d="M22 41c0 4.5 4.2 7.2 10 7.2 5.6 0 9.6-2.7 9.6-6.7 0-3.3-2-5.2-7-6.4l-3.5-.9c-2.4-.6-3.4-1.4-3.4-2.8 0-1.7 1.6-2.9 4-2.9 2.5 0 4.1 1.2 4.3 3.1h5.1c-.1-4.2-3.7-7-9.3-7-5.5 0-9.4 2.8-9.4 6.9 0 3.3 2.1 5.4 6.8 6.5l3.6.9c2.5.6 3.5 1.4 3.5 2.9 0 1.8-1.8 3-4.5 3-2.7 0-4.6-1.2-4.8-3.1H22z" fill="white"/>
</svg>
